<svg version="1.1" width="494" height="377" viewBox="-1 -1 494 377"
     xmlns="http://www.w3.org/2000/svg">
    <!-- Exported by Scratch - http://scratch.mit.edu/ -->
    <path id="ID0.7643342423252761" fill="#00FF55" stroke="none"
          d="M 62 8 L 430 8 L 430 348 L 62 348 L 62 8 Z "
          transform="matrix(1.3369271755218506, 0, 0, 1.1029411554336548, -88.7, -15.8)"/>
    <g id="ID0.47493764804676175">
        <g id="ID0.8910491527058184">
            <path id="ID0.3636465002782643" fill="none" stroke="#000000"
                  stroke-width="2" d="M 2 2 L 18 2 "
                  transform="matrix(0.03573594614863396, -5.015024662017822, 5.015024662017822, 0.03573594614863396, 77.7, 346.65)"/>
            <path id="ID0.8627031878568232" fill="none" stroke="#000000"
                  stroke-width="2" d="M 34 2 L 66 2 "
                  transform="matrix(0.03573594614863396, -5.015024662017822, 5.015024662017822, 0.03573594614863396, 77.7, 346.65)"/>
            <path id="ID0.2985236719250679" fill="none" stroke="#000000"
                  stroke-width="2" d="M 18 18 L 34 18 "
                  transform="matrix(0.03573594614863396, -5.015024662017822, 5.015024662017822, 0.03573594614863396, 77.7, 346.65)"/>
            <path id="ID0.1458607381209731" fill="none" stroke="#000000"
                  stroke-width="2" d="M 34 34 L 66 34 "
                  transform="matrix(0.03573594614863396, -5.015024662017822, 5.015024662017822, 0.03573594614863396, 77.7, 346.65)"/>
            <path id="ID0.212989108171314" fill="none" stroke="#000000"
                  stroke-width="2" d="M 18 50 L 34 50 "
                  transform="matrix(0.03573594614863396, -5.015024662017822, 5.015024662017822, 0.03573594614863396, 77.7, 346.65)"/>
            <path id="ID0.1556206215173006" fill="none" stroke="#000000"
                  stroke-width="2" d="M 2 66 L 34 66 "
                  transform="matrix(0.03573594614863396, -5.015024662017822, 5.015024662017822, 0.03573594614863396, 77.7, 346.65)"/>
            <path id="ID0.5661922860890627" fill="none" stroke="#000000"
                  stroke-width="2" d="M 50 66 L 66 66 "
                  transform="matrix(0.03573594614863396, -5.015024662017822, 5.015024662017822, 0.03573594614863396, 77.7, 346.65)"/>
            <path id="ID0.9204092822037637" fill="none" stroke="#000000"
                  stroke-width="2" d="M 2 2 L 2 66 "
                  transform="matrix(0.03573594614863396, -5.015024662017822, 5.015024662017822, 0.03573594614863396, 77.7, 346.65)"/>
            <path id="ID0.775247628800571" fill="none" stroke="#000000"
                  stroke-width="2" d="M 18 18 L 18 50 "
                  transform="matrix(0.03573594614863396, -5.015024662017822, 5.015024662017822, 0.03573594614863396, 77.7, 346.65)"/>
            <path id="ID0.04244350641965866" fill="none" stroke="#000000"
                  stroke-width="2" d="M 34 50 L 34 66 "
                  transform="matrix(0.03573594614863396, -5.015024662017822, 5.015024662017822, 0.03573594614863396, 77.7, 346.65)"/>
            <path id="ID0.9286438380368054" fill="none" stroke="#000000"
                  stroke-width="2" d="M 50 2 L 50 18 "
                  transform="matrix(0.03573594614863396, -5.015024662017822, 5.015024662017822, 0.03573594614863396, 77.7, 346.65)"/>
            <path id="ID0.5525763528421521" fill="none" stroke="#000000"
                  stroke-width="2" d="M 50 50 L 50 66 "
                  transform="matrix(0.03573594614863396, -5.015024662017822, 5.015024662017822, 0.03573594614863396, 77.7, 346.65)"/>
            <path id="ID0.5949905551970005" fill="none" stroke="#000000"
                  stroke-width="2" d="M 66 2 L 66 66 "
                  transform="matrix(0.03573594614863396, -5.015024662017822, 5.015024662017822, 0.03573594614863396, 77.7, 346.65)"/>
        </g>
    </g>
</svg>
